<?xml version="1.0" standalone="no"?>
<!DOCTYPE svg PUBLIC "-//W3C//DTD SVG 20010904//EN"
 "http://www.w3.org/TR/2001/REC-SVG-20010904/DTD/svg10.dtd">
<svg version="1.0" xmlns="http://www.w3.org/2000/svg"
 width="300.000000pt" height="200.000000pt" viewBox="0 0 300.000000 200.000000"
 preserveAspectRatio="xMidYMid meet">
<metadata>
Created by potrace 1.10, written by Peter Selinger 2001-2011
</metadata>
<g transform="translate(0.000000,200.000000) scale(0.100000,-0.100000)"
fill="#000000" stroke="none">
<path d="M1463 1858 c-30 -34 -73 -141 -73 -181 0 -43 -26 -59 -40 -23 -18 49
-169 143 -201 125 -29 -15 -31 -43 -9 -131 13 -55 27 -89 42 -101 33 -27 9
-43 -33 -22 -26 14 -50 17 -119 13 -94 -6 -130 -19 -130 -47 0 -21 136 -155
168 -165 14 -5 29 -3 39 6 15 11 16 11 9 -7 -5 -11 -9 -25 -9 -32 0 -8 -6 -9
-18 -3 -13 8 -36 -3 -103 -48 -128 -86 -123 -116 27 -146 82 -16 114 -14 129
8 4 7 27 -10 57 -41 27 -28 65 -57 85 -64 20 -7 36 -17 36 -22 0 -4 -4 -6 -9
-2 -5 3 -12 1 -16 -5 -3 -5 -17 -10 -29 -10 -38 0 -48 -21 -40 -88 3 -36 2
-68 -4 -79 -10 -16 -12 -14 -26 18 -8 20 -17 49 -20 65 -12 63 -71 102 -124
83 -26 -10 -38 -36 -89 -192 -43 -134 -41 -150 22 -155 33 -3 42 1 62 27 30
37 45 39 63 6 7 -13 23 -28 34 -31 29 -10 197 -7 207 3 4 4 9 28 11 53 3 42 5
45 40 55 20 5 40 13 44 18 18 17 24 3 24 -52 0 -67 11 -82 65 -86 23 -1 43 5
57 17 26 22 32 22 48 3 15 -18 88 -20 111 -2 9 7 14 19 11 27 -4 13 -2 12 14
-1 65 -56 164 -66 230 -23 54 35 78 93 72 178 -3 50 -10 71 -31 100 -36 47
-58 57 -126 61 -59 3 -97 -10 -138 -48 l-22 -20 -36 32 c-20 17 -47 31 -63 32
-15 0 -36 4 -47 8 -16 7 -8 12 44 31 42 16 82 40 118 73 53 49 54 50 68 29 17
-24 60 -23 163 1 127 31 110 79 -57 170 -18 10 -42 16 -52 14 -15 -4 -19 0
-19 19 0 14 5 24 13 23 32 -4 48 5 114 66 80 73 92 99 60 120 -47 30 -247 24
-247 -7 0 -4 -4 -8 -10 -8 -17 0 -11 30 10 57 11 14 20 36 20 48 0 12 4 35 10
51 27 82 11 142 -33 128 -45 -13 -169 -97 -177 -120 -13 -34 -49 -33 -42 1 5
26 -38 139 -71 188 -22 33 -37 34 -64 5z m72 -83 c21 -49 39 -95 41 -100 3 -6
-29 -10 -84 -10 l-88 0 33 80 c19 44 38 91 44 104 5 13 11 22 13 20 2 -2 21
-44 41 -94z m-287 -65 c50 -30 92 -58 92 -61 0 -4 -10 -9 -22 -13 -13 -3 -46
-23 -75 -45 l-52 -40 -21 92 c-11 51 -24 100 -27 111 -6 23 -6 23 105 -44z
m575 -47 c-14 -60 -27 -109 -28 -111 -1 -2 -17 10 -35 26 -18 17 -50 38 -71
48 -22 9 -39 20 -38 23 0 8 172 119 185 120 8 1 3 -36 -13 -106z m-186 -72
c155 -74 240 -233 199 -374 -23 -78 -97 -158 -174 -187 -118 -45 -256 -10
-340 85 -51 58 -66 102 -59 175 8 96 49 153 142 196 104 49 227 18 286 -73 27
-43 30 -54 27 -113 -4 -78 -29 -120 -91 -152 -145 -74 -316 61 -238 188 36 60
134 83 184 44 48 -38 44 -130 -6 -130 -20 0 -23 4 -19 30 8 58 -41 79 -92 39
-35 -28 -34 -63 4 -101 29 -28 35 -30 86 -26 73 6 105 36 111 105 8 91 -53
153 -150 153 -164 0 -249 -187 -139 -303 92 -98 251 -99 339 -4 119 129 74
323 -91 398 -27 12 -65 19 -111 19 -221 0 -365 -221 -270 -414 37 -75 103
-134 148 -133 35 1 127 -31 127 -44 0 -13 -38 -21 -62 -13 -13 4 -34 8 -48 10
-14 1 -29 2 -34 3 -4 1 -6 8 -2 16 3 9 0 15 -10 15 -28 0 -111 49 -139 82
-122 144 -85 364 78 477 62 42 123 60 207 61 63 0 85 -5 137 -29z m-498 -110
c-12 -16 -29 -56 -38 -89 l-16 -60 -87 83 c-99 97 -103 91 65 94 l98 1 -22
-29z m863 23 l75 -7 -86 -78 c-85 -77 -100 -82 -101 -34 0 11 -13 44 -29 73
l-29 52 47 0 c27 0 82 -3 123 -6z m-486 -221 c3 -10 10 -26 15 -36 14 -26 4
-33 -29 -21 -27 10 -38 33 -28 60 8 20 36 18 42 -3z m-426 -45 c0 -24 9 -63
20 -87 11 -24 19 -45 18 -47 -2 -1 -26 2 -53 6 -111 20 -165 33 -165 40 0 4
34 31 75 59 41 28 77 56 80 61 14 22 25 7 25 -32z m991 -90 c-7 -7 -212 -50
-217 -45 -2 2 6 31 16 66 11 34 20 73 20 86 0 23 6 20 93 -38 52 -34 91 -65
88 -69z m-922 -310 c17 -57 40 -127 50 -155 l19 -53 -48 0 c-32 0 -48 4 -47
13 2 54 -1 57 -53 57 -52 0 -56 -4 -52 -52 1 -15 -6 -18 -43 -18 -44 0 -45 1
-34 22 17 32 89 250 89 270 0 15 8 18 44 18 l43 0 32 -102z m291 85 c0 -10 3
-29 7 -42 5 -21 4 -22 -15 -12 -11 6 -41 11 -66 11 l-46 0 0 -36 0 -36 54 4
54 4 0 -36 1 -37 -55 5 -54 4 0 -41 c0 -23 5 -51 10 -62 10 -18 7 -19 -42 -19
l-53 0 0 155 0 155 103 0 c90 0 102 -2 102 -17z m223 6 c30 -8 42 -18 53 -44
18 -43 8 -90 -23 -115 -24 -18 -24 -19 -7 -52 9 -18 25 -45 36 -60 l19 -28
-45 0 c-46 0 -46 0 -73 55 -15 30 -34 55 -41 55 -11 0 -13 -12 -10 -55 l5 -55
-46 0 -46 0 3 134 c2 86 -1 142 -8 155 -10 20 -9 21 67 21 43 0 95 -5 116 -11z
m338 -27 c34 -38 50 -94 42 -147 -13 -89 -54 -125 -143 -125 -94 0 -143 54
-143 155 0 103 57 159 157 152 51 -3 63 -8 87 -35z"/>
<path d="M1067 827 c-4 -17 -9 -42 -13 -54 -6 -21 -3 -23 26 -23 24 0 31 4 27
14 -3 8 -9 31 -13 50 -8 48 -20 53 -27 13z"/>
<path d="M1580 835 c0 -47 4 -50 48 -39 26 8 39 48 22 69 -7 8 -25 15 -41 15
-28 0 -29 -2 -29 -45z"/>
<path d="M1875 876 c-27 -19 -34 -135 -11 -171 20 -30 65 -34 88 -7 22 25 31
86 18 132 -15 55 -55 75 -95 46z m62 -48 c11 -28 7 -86 -8 -104 -8 -10 -16
-11 -30 -3 -14 7 -19 21 -19 54 0 24 3 50 6 59 9 23 39 19 51 -6z"/>
<path d="M1897 584 c-4 -4 -36 -9 -72 -10 -35 -1 -68 -5 -74 -8 -5 -4 -17 -31
-26 -61 -19 -66 -41 -65 -51 1 -10 71 -67 95 -128 55 -28 -18 -29 -18 -60 0
-55 32 -125 8 -126 -43 0 -10 -5 -18 -10 -18 -6 0 -9 -3 -8 -7 2 -12 -14 -65
-33 -108 -21 -46 -24 -38 -7 20 6 22 11 43 10 47 -1 4 5 25 13 48 13 38 13 42
-6 61 -34 34 -109 11 -109 -32 0 -28 -17 -23 -32 8 -29 60 -119 48 -133 -17
-6 -27 -17 -33 -21 -12 -12 57 -45 79 -101 65 -35 -8 -38 -11 -37 -43 1 -67
56 -265 80 -291 11 -12 31 -19 55 -19 33 0 42 5 62 35 l24 36 21 -36 c18 -29
27 -35 55 -35 19 0 46 9 59 20 25 19 26 19 43 0 32 -36 115 -16 115 27 0 6 9
13 20 16 14 3 27 -5 45 -29 21 -28 33 -34 62 -34 41 0 75 24 66 48 -8 21 16 6
40 -25 14 -17 29 -23 58 -23 49 0 84 33 94 87 7 39 45 126 51 120 3 -2 5 -44
5 -93 0 -49 5 -95 11 -101 7 -9 42 -13 108 -13 95 0 99 1 119 26 22 28 27 59
12 68 -11 7 -21 -17 -21 -49 0 -23 -2 -24 -102 -24 l-103 -1 3 141 c3 98 0
145 -8 153 -19 18 -37 -17 -83 -161 l-42 -133 -41 0 -42 0 -42 128 c-23 70
-49 139 -56 155 l-15 27 56 0 c53 0 55 -1 55 -27 1 -42 47 -210 54 -193 24 68
57 194 52 206 -4 12 19 14 148 14 l154 0 4 -35 c3 -25 0 -34 -8 -31 -68 26
-114 14 -114 -30 0 -22 4 -24 53 -24 52 0 52 0 54 -33 l1 -34 -55 5 -54 5 3
-34 c3 -32 5 -34 45 -37 43 -3 83 11 83 28 0 6 -3 9 -7 9 -20 -3 -27 2 -14 10
19 12 24 50 10 82 -9 23 -8 30 10 48 27 27 26 46 -4 76 -19 20 -35 25 -72 25
-26 0 -57 3 -68 6 -11 3 -24 2 -28 -2z m-904 -49 c-7 -20 28 -198 38 -188 9
11 39 145 39 177 0 24 3 26 46 26 25 0 43 -4 40 -9 -4 -5 5 -53 18 -108 21
-85 25 -94 31 -68 4 17 11 46 16 65 5 19 9 54 9 78 l0 42 45 0 46 0 -14 -27
c-8 -16 -29 -85 -48 -155 l-34 -128 -36 0 -37 0 -17 73 c-10 39 -21 78 -25 85
-3 7 -17 -24 -30 -72 l-24 -86 -38 0 c-26 0 -38 5 -42 18 -3 9 -19 71 -37 137
-17 66 -35 124 -40 130 -18 19 -8 25 46 25 45 0 53 -3 48 -15z m531 -127 c26
-79 50 -149 52 -155 4 -10 -9 -13 -46 -13 -42 0 -51 3 -46 15 3 8 1 26 -4 39
-8 21 -15 24 -51 23 -34 -2 -44 -7 -51 -27 -5 -13 -6 -30 -4 -37 4 -10 -6 -13
-39 -13 -41 0 -58 11 -37 24 4 2 28 68 52 145 l45 141 41 0 42 0 46 -142z"/>
<path d="M1417 448 c-4 -18 -9 -43 -13 -55 -6 -21 -3 -23 26 -23 24 0 31 4 27
14 -3 8 -11 33 -17 55 -6 23 -12 41 -14 41 -2 0 -6 -15 -9 -32z"/>
</g>
</svg>
